<svg width="34" height="29" viewBox="0 0 34 29" fill="none" xmlns="http://www.w3.org/2000/svg">
<path fill-rule="evenodd" clip-rule="evenodd" d="M5.50105 0C3.98198 0 2.75053 1.23145 2.75053 2.75053V4.12579C2.75053 4.20372 2.75377 4.28089 2.76012 4.35718C1.15267 4.92084 0 6.4516 0 8.25158V24.7547C0 27.0333 1.84718 28.8805 4.12579 28.8805H28.8805C31.1591 28.8805 33.0063 27.0333 33.0063 24.7547V8.25158C33.0063 5.97297 31.1591 4.12579 28.8805 4.12579H16.3298C15.7192 1.75315 13.5654 0 11.0021 0H5.50105ZM13.3847 4.12579C12.9091 3.30366 12.0202 2.75053 11.0021 2.75053H5.50105V4.12579H13.3847ZM4.12579 6.87632C3.36625 6.87632 2.75053 7.49204 2.75053 8.25158V24.7547C2.75053 25.5143 3.36625 26.13 4.12579 26.13H28.8805C29.6401 26.13 30.2558 25.5143 30.2558 24.7547V8.25158C30.2558 7.49204 29.6401 6.87632 28.8805 6.87632H4.12579Z" fill="#D6D6D6"/>
</svg>
