<svg width="37" height="37" viewBox="0 0 37 37" fill="none" xmlns="http://www.w3.org/2000/svg">
<path fill-rule="evenodd" clip-rule="evenodd" d="M18.5188 8.58968L16.843 6.9139C13.5317 3.60257 8.16297 3.60257 4.85165 6.9139C1.54033 10.2252 1.54033 15.5939 4.85165 18.9052L18.4782 32.5318L18.481 32.529L18.5216 32.5696L32.1481 18.9431C35.4594 15.6318 35.4594 10.263 32.1481 6.95172C28.8368 3.6404 23.4681 3.6404 20.1567 6.95172L18.5188 8.58968ZM18.481 28.1685L26.091 20.5585L28.3277 18.3986L28.3299 18.4008L29.9679 16.7628C32.0751 14.6556 32.0751 11.2392 29.9679 9.13197C27.8607 7.02476 24.4442 7.02476 22.337 9.13197L18.5204 12.9485L18.5093 12.9374L18.5076 12.939L14.6628 9.09414C12.5556 6.98694 9.1391 6.98694 7.0319 9.09414C4.9247 11.2013 4.9247 14.6178 7.0319 16.725L10.9468 20.64L10.9496 20.6372L18.481 28.1685Z" fill="#444444"/>
</svg>
