<svg width="31" height="26" viewBox="0 0 31 26" fill="none" xmlns="http://www.w3.org/2000/svg">
<path d="M22.4874 17.1716H25.2379V19.9221H22.4874V17.1716Z" fill="#D6D6D6"/>
<path d="M25.2379 11.6706H22.4874V14.4211H25.2379V11.6706Z" fill="#D6D6D6"/>
<path fill-rule="evenodd" clip-rule="evenodd" d="M16.9863 6.16951H30.7389V25.4232H0.483154V0.668457H16.9863V6.16951ZM10.11 3.41901H14.2358V6.16951H10.11V3.41901ZM14.2358 22.6727V19.9221H10.11V22.6727H14.2358ZM14.2358 17.1716V14.4211H10.11V17.1716H14.2358ZM14.2358 11.6706V8.92004H10.11V11.6706H14.2358ZM27.9884 22.6727V8.92004H16.9863V11.6706H19.7368V14.4211H16.9863V17.1716H19.7368V19.9221H16.9863V22.6727H27.9884ZM3.23368 22.6727V19.9221H7.35947V22.6727H3.23368ZM3.23368 17.1716H7.35947V14.4211H3.23368V17.1716ZM7.35947 11.6706V8.92004H3.23368V11.6706H7.35947ZM3.23368 6.16951H7.35947V3.41901H3.23368V6.16951Z" fill="#D6D6D6"/>
</svg>
