<svg width="25" height="36" viewBox="0 0 25 36" fill="none" xmlns="http://www.w3.org/2000/svg">
<path fill-rule="evenodd" clip-rule="evenodd" d="M20.491 8.12622C20.491 12.4782 16.963 16.0061 12.6111 16.0061C8.25915 16.0061 4.7312 12.4782 4.7312 8.12622C4.7312 3.77428 8.25915 0.246338 12.6111 0.246338C16.963 0.246338 20.491 3.77428 20.491 8.12622ZM16.551 8.12622C16.551 10.3022 14.7871 12.0662 12.6111 12.0662C10.4351 12.0662 8.67114 10.3022 8.67114 8.12622C8.67114 5.95025 10.4351 4.18628 12.6111 4.18628C14.7871 4.18628 16.551 5.95025 16.551 8.12622Z" fill="#D6D6D6"/>
<path d="M20.491 23.886C20.491 22.798 19.609 21.916 18.521 21.916H6.70117C5.61319 21.916 4.7312 22.798 4.7312 23.886V35.7058H0.79126V23.886C0.79126 20.622 3.43722 17.9761 6.70117 17.9761H18.521C21.785 17.9761 24.4309 20.622 24.4309 23.886V35.7058H20.491V23.886Z" fill="#D6D6D6"/>
</svg>
